# xmcd
# 
# Track frame offsets:
#     150
#     20460
#     37786
#     55325
#     70538
#     88206
#     103041
#     120336
#     137261
#     155782
#     174618
#     193312
#     211477
#     228732
#     245453
#     263529
#     283251
#     314919
# 
# Disc length: 4597
# 
# Revision: 1
# Processed by: cddbd v1.5.2PL0 Copyright (c) Steve Scherf et al.
# Submitted via: fre:ac v1.0.27
# 
DISCID=0711f312
DTITLE=Patrick Sébastien - L'indispensable pour faire la fête
DYEAR=2010
DGENRE=Ambiance
TTITLE0=La fiesta 2010 (remix)
TTITLE1=Grazie mille
TTITLE2=Tourner les serviettes
TTITLE3=Pourvu que ça dure
TTITLE4=Les sardines
TTITLE5=Le petit bonhomme en mousse
TTITLE6=Ah si tu pouvais fermer ta gueule
TTITLE7=C'est chaud
TTITLE8=La chanson à Elise
TTITLE9=Alain
TTITLE10=Sauf le respect que je vous... doigt
TTITLE11=Petit Louis
TTITLE12=Chiquita del sol
TTITLE13=Le kankan
TTITLE14=Les cacatoes
TTITLE15=Samba do Brasil
TTITLE16=La dernière farandole
TTITLE17=DATA
EXTD=YEAR: 2010
EXTT0=
EXTT1=
EXTT2=
EXTT3=
EXTT4=
EXTT5=
EXTT6=
EXTT7=
EXTT8=
EXTT9=
EXTT10=
EXTT11=
EXTT12=
EXTT13=
EXTT14=
EXTT15=
EXTT16=
EXTT17=
PLAYORDER=
